<?xml version="1.0" encoding="UTF-8" standalone="no"?>
<!-- Created with Inkscape (http://www.inkscape.org/) -->

<svg
   width="256"
   height="256"
   viewBox="0 0 67.733332 67.733333"
   version="1.1"
   id="svg1"
   xml:space="preserve"
   inkscape:version="1.3.2 (091e20e, 2023-11-25, custom)"
   sodipodi:docname="PS_BugWallStorage_UI.svg"
   inkscape:export-filename="PS_BugWallStorage_UI.png"
   inkscape:export-xdpi="96"
   inkscape:export-ydpi="96"
   xmlns:inkscape="http://www.inkscape.org/namespaces/inkscape"
   xmlns:sodipodi="http://sodipodi.sourceforge.net/DTD/sodipodi-0.dtd"
   xmlns="http://www.w3.org/2000/svg"
   xmlns:svg="http://www.w3.org/2000/svg"><sodipodi:namedview
     id="namedview1"
     pagecolor="#ffffff"
     bordercolor="#000000"
     borderopacity="0.25"
     inkscape:showpageshadow="2"
     inkscape:pageopacity="0.0"
     inkscape:pagecheckerboard="0"
     inkscape:deskcolor="#d1d1d1"
     inkscape:document-units="mm"
     inkscape:zoom="0.88085938"
     inkscape:cx="259.40576"
     inkscape:cy="92.523281"
     inkscape:window-width="2560"
     inkscape:window-height="1369"
     inkscape:window-x="-8"
     inkscape:window-y="-8"
     inkscape:window-maximized="1"
     inkscape:current-layer="layer1" /><defs
     id="defs1" /><g
     inkscape:label="Layer 1"
     inkscape:groupmode="layer"
     id="layer1"><g
       id="g1"
       transform="translate(-3.8925565,13.039397)"><path
         style="display:inline;fill:#737152;fill-opacity:1;stroke-width:2;stroke-linecap:round;stroke-linejoin:round;stroke-dasharray:none"
         d="m 23.835197,4.468213 c -9.304987,3.291562 -8.925192,8.292202 -8.925192,8.292202 0,0 -2.595268,6.076725 0.82289,7.912404 3.418159,1.835677 3.508461,10.320851 7.063626,10.158753 3.301403,-0.150527 7.115963,2.552304 9.794867,4.467422 4.160249,2.974114 6.004272,1.728027 9.717343,1.221158 4.376277,-0.597401 4.760074,-3.925904 6.666104,-5.617863 2.487872,-2.208451 2.901922,-3.836248 4.041308,-4.026147 1.139385,-0.189897 5.127238,-0.886188 6.64642,-3.734655 1.519182,-2.848464 2.595269,-5.253836 1.392582,-8.735292 C 59.85246,10.924736 59.662563,9.78535 56.877395,7.25338 54.092229,4.72141 54.78852,4.531513 52.319852,4.468215 c -2.468671,-0.0633 -28.484655,-2e-6 -28.484655,-2e-6 z"
         id="path1"
         sodipodi:nodetypes="ccssssssssssc" /><path
         id="path1-5"
         style="display:inline;fill:#434132;fill-opacity:1;stroke-width:31.5;stroke-linecap:round;stroke-linejoin:round"
         d="m 35.506912,10.88258 c -2.294486,0.004 -3.989005,3.176774 -8.412035,4.925414 -3.88777,1.537025 -4.644317,4.167366 -4.670634,7.513546 0.15023,5.643299 0.649487,7.686646 1.885698,7.500696 0.72495,-0.109047 4.673884,4.058338 5.631451,-0.433231 0.158625,-0.744045 -1.810139,-1.257411 -2.618054,-5.101183 -0.95197,-4.52913 2.518191,-9.676732 5.120449,-10.121856 4.810736,-0.82289 7.406216,-2.975368 10.381278,-0.696598 2.975062,2.278768 3.212576,3.605622 5.633765,5.886979 1.561639,1.471449 -0.137344,5.809093 -0.57386,8.191036 -0.182412,0.995367 1.528396,1.298641 1.423087,1.624313 -0.327237,1.011995 3.259918,-3.220634 3.708117,-3.295334 0.361584,-0.06027 1.023647,-0.183561 1.789039,-0.398425 -0.529155,-2.056225 -1.50445,-5.581246 -2.042253,-5.805331 -0.759591,-0.316496 -2.785395,-2.721406 -3.291789,-4.493782 -0.506393,-1.772375 -3.671226,-3.418195 -5.570202,-4.241085 -1.898977,-0.822888 -3.417849,-1.519306 -6.646106,-1.772502 -0.605299,-0.04747 -1.218454,0.716416 -1.747951,0.717343 z"
         sodipodi:nodetypes="sscssssssssscsssss" /><path
         style="display:inline;fill:#918c6d;fill-opacity:1;stroke-width:31.5;stroke-linecap:round;stroke-linejoin:round"
         d="m 14.910005,12.760415 c 0,0 -0.379795,0.379793 1.64578,1.898975 2.025576,1.519182 10.001278,-5.158888 10.001278,-5.158888 l 8.545396,-0.411443 c 0,0 6.899617,-2.088875 10.507673,0.822889 3.608057,2.911766 5.317136,4.726499 8.102304,3.787482 2.785165,-0.939017 2.369889,-0.243828 3.291559,-2.837993 0.921669,-2.594166 0.811657,-2.707929 0.811657,-2.707929 L 54.895549,5.308867 C 54.289704,4.577696 53.368762,4.408782 52.319852,4.468215 l -28.484655,-3e-6 -3.568664,1.574567 c -1.454598,0.827052 -2.624131,1.683302 -3.421673,2.577653 -1.132324,1.260919 -1.90123,2.610628 -1.934855,4.139983 z"
         id="path2"
         sodipodi:nodetypes="csccsssccccccc" /><path
         style="fill:#655b3f;fill-opacity:1;stroke-width:31.5;stroke-linecap:round;stroke-linejoin:round"
         d="m 25.562629,4.468212 c 0,0 -0.134278,1.68117 -2.148447,3.202988 -2.01417,1.521817 -4.3191,1.42491 -3.625505,3.759782 0.693595,2.334871 0.760908,3.179849 -0.760908,4.230724 -1.521817,1.050875 -2.445045,2.532586 -3.625505,2.861625 -1.18046,0.329041 -1.177237,0.338487 -1.177237,0.338487 l 1.507868,1.811001 c 0,0 2.489206,-0.60329 2.813711,-1.330629 0.324505,-0.727337 1.029464,-1.779183 1.163742,-1.835132 0.134278,-0.05595 0.514732,-0.04476 0.805668,0.100709 0.290935,0.145468 0.469973,0.581871 0.414024,1.197311 -0.05595,0.615442 -0.156658,1.376349 0.246176,2.025361 0.402834,0.64901 0.639464,0.941986 1.26655,1.766504 0.627087,0.824516 0.853779,0.851257 0.853779,0.851257 l 1.877744,-0.06288 c 0,0 -0.148772,-1.905873 -0.786592,-2.387036 -0.63782,-0.481164 -1.432298,-0.447593 -1.779183,-1.174933 -0.346885,-0.727339 -0.716149,-1.846321 -0.346885,-2.61842 0.369265,-0.772099 0.167848,-1.841875 -0.346884,-2.081307 -0.514733,-0.239432 -0.522129,-1.112047 -0.669493,-1.798096 -0.147365,-0.686046 -0.639718,-1.805029 -0.180935,-2.275003 0.458783,-0.469972 1.947031,-0.6344 2.584851,-0.760908 0.63782,-0.126508 1.846322,-0.895186 1.521817,-1.656096 -0.324505,-0.760907 -0.156658,-1.331589 0.223796,-1.734423 0.380455,-0.402833 1.812753,-1.832673 1.902271,-2.137256 0.08952,-0.304583 -0.07833,-0.304583 -0.07833,-0.304583 z"
         id="path3" /><path
         style="fill:#0a0a07;fill-opacity:1;stroke:none;stroke-width:2;stroke-linecap:round;stroke-linejoin:round"
         d="m 29.394175,29.459741 c -1.161555,-1.16531 -1.715649,-2.621064 -2.070837,-4.171921 -0.327511,-1.730332 -0.129216,-3.446939 0.544808,-5.151127 0.670161,-1.635401 1.567115,-3.028838 2.801874,-4.061871 0.357103,-0.76685 2.740412,-1.189336 4.83713,-1.635991 1.126499,-0.364918 3.286675,-1.485156 5.756593,-0.795826 1.398822,0.434657 2.608157,1.307505 3.613668,2.651694 1.145445,1.015879 1.918582,2.184066 2.817101,3.30096 1.276701,0.775184 1.767728,1.882097 1.385205,3.357843 -0.0265,1.360029 -0.290722,2.638732 -0.784289,3.838975 l -0.410458,1.754904 c 0,0 -1.451793,3.012244 -3.442989,3.930251 -1.991199,0.918006 -7.669794,0.667575 -9.808488,0 -2.138693,-0.667576 -5.239318,-3.017891 -5.239318,-3.017891 z"
         id="path5"
         sodipodi:nodetypes="cccccccccccssc" /><path
         style="fill:#655b3f;fill-opacity:1;stroke-width:31.5;stroke-linecap:round;stroke-linejoin:round"
         d="m 39.130394,4.468212 c 0,0 0.976201,0.141396 0.112638,1.530604 -0.863563,1.389208 -2.319377,1.768001 -1.47384,2.966148 0.845534,1.198147 4.684461,2.395498 4.064529,3.529344 -0.619934,1.133845 -0.569978,1.148699 -0.569978,1.148699 l 1.561224,0.826487 c 0,0 1.702617,-0.317321 1.749626,-1.261809 0.04701,-0.944488 3.333692,-1.76685 -0.375462,-3.304064 -3.709154,-1.537216 -4.270648,0.07914 -4.275458,-1.537369 -0.0048,-1.616512 -0.342725,-1.662851 1.234215,-2.780445 1.576941,-1.117592 1.576941,-1.117592 1.576941,-1.117592 z"
         id="path4" /><path
         style="fill:#63f06c;fill-opacity:0.203361;stroke:none;stroke-width:2;stroke-linecap:round;stroke-linejoin:round;stroke-opacity:1"
         d="m 43.427902,32.792491 c 0,0 0.663776,0.455652 0.719087,0.842828 0.05531,0.387178 0.221242,0.331867 0.09218,0.995598 -0.129059,0.663733 0.08101,1.324721 0.08101,1.324721 l -2.01145,0.564512 c 0,0 0.320977,-1.336122 0.418608,-1.594242 0.09763,-0.258116 -0.01844,-0.645294 -0.221244,-0.884975 -0.202806,-0.239681 -0.410967,-1.053714 -0.40671,-1.054119 0.0043,-5.29e-4 1.328518,-0.194323 1.328519,-0.194323 z"
         id="path7" /><path
         style="fill:#655b3f;fill-opacity:1;stroke:none;stroke-width:2;stroke-linecap:round;stroke-linejoin:round;stroke-opacity:1"
         d="m 41.263743,13.643005 c 0,0 -1.320393,1.490779 -1.39414,2.864337 -0.07375,1.373555 -0.230463,3.828979 0.01844,4.074578 0.248902,0.2456 1.272154,1.493398 1.981981,1.161532 0.709824,-0.331867 0.626856,-0.599202 0.626856,-0.599202 0,0 -0.48858,-0.68217 -0.838883,-0.580766 -0.350303,0.101402 -0.958725,-0.267338 -0.995598,-0.580766 -0.03688,-0.31343 0.18437,-1.576366 0.507016,-1.871358 0.322649,-0.294992 0.445079,-1.981978 0.507018,-2.175565 0.06194,-0.193588 0,-1.226061 0.396397,-1.29059 0.396396,-0.06453 0.752141,-0.17571 0.752141,-0.17571 -0.403095,-0.361961 -0.903313,-0.652338 -1.561224,-0.82649 z"
         id="path6"
         sodipodi:nodetypes="cssscsssssccc" /><path
         style="fill:#63f06c;fill-opacity:0.203361;stroke:none;stroke-width:2;stroke-linecap:round;stroke-linejoin:round;stroke-opacity:1"
         d="m 38.8985,33.052619 c 0,0 0.226838,0.248385 0.383281,0.874159 0.156442,0.625772 0.33896,0.782214 -0.03911,0.990807 -0.378071,0.208589 -0.717031,0.625771 -0.560589,0.756142 0.156443,0.130368 0.260739,0.54755 0.260739,0.54755 l -1.447099,0.298873 c 0,0 0.495404,-0.403167 0.456293,-0.624795 -0.03911,-0.221628 -0.07175,-0.560589 0.127087,-0.703995 0.198835,-0.143407 0.550834,-0.195554 0.420463,-0.651846 -0.130368,-0.456293 0.07736,-0.743106 -0.117332,-0.951696 -0.194694,-0.208592 -0.169037,-0.570783 -0.169037,-0.570783 z"
         id="path8" /><path
         style="fill:#63f06c;fill-opacity:0.203361;stroke:none;stroke-width:2;stroke-linecap:round;stroke-linejoin:round;stroke-opacity:1"
         d="m 34.633493,32.477632 c 0,0 0.350303,0.03174 0.534673,0.539403 0.18437,0.507661 0.405614,0.581411 0.239681,0.821092 -0.165931,0.239681 -0.442487,0.06513 0,0.497798 0.442489,0.432668 0.626859,0.442489 0.534675,0.737481 -0.09219,0.294992 -0.25812,0 0,0.479361 0.258117,0.479364 0.07375,0.645295 0.07375,0.645295 l -1.290589,-0.571545 c 0,0 0.405614,-0.248298 0.258116,-0.553111 -0.147494,-0.304813 -0.129058,-0.202806 -0.276555,-0.534673 -0.147495,-0.331867 -0.18437,-0.534673 -0.07375,-0.645295 0.110623,-0.110622 0.276556,-0.141174 0.07375,-0.479364 -0.202806,-0.338188 -0.626856,-0.306723 -0.350303,-0.621583 0.276555,-0.314859 -0.04152,-0.423619 -0.04152,-0.423619 z"
         id="path9" /><path
         style="display:inline;fill:none;fill-opacity:1;stroke:#000000;stroke-width:2;stroke-linecap:round;stroke-linejoin:round;stroke-dasharray:none;stroke-opacity:1"
         d="m 23.835197,4.468213 c -9.304987,3.291562 -8.925192,8.292202 -8.925192,8.292202 0,0 -2.595268,6.076725 0.82289,7.912404 3.418159,1.835677 3.508461,10.320851 7.063626,10.158753 3.301403,-0.150527 7.115963,2.552304 9.794867,4.467422 4.160249,2.974114 6.004272,1.728027 9.717343,1.221158 4.376277,-0.597401 4.760074,-3.925904 6.666104,-5.617863 2.487872,-2.208451 2.901922,-3.836248 4.041308,-4.026147 1.139385,-0.189897 5.127238,-0.886188 6.646417,-3.734655 1.51919,-2.848464 2.59527,-5.253836 1.39258,-8.735292 C 59.85246,10.924736 59.66256,9.78535 56.877395,7.25338 54.092229,4.72141 54.78852,4.531513 52.319852,4.468215 c -2.468671,-0.0633 -28.484655,-2e-6 -28.484655,-2e-6 z"
         id="path1-7"
         sodipodi:nodetypes="ccssssssssssc" /></g></g></svg>
