<?xml version="1.0" encoding="UTF-8" standalone="no"?>
<!-- Created with Inkscape (http://www.inkscape.org/) -->

<svg
   width="256"
   height="256"
   viewBox="0 0 67.733332 67.733333"
   version="1.1"
   id="svg1"
   xml:space="preserve"
   inkscape:version="1.3.2 (091e20e, 2023-11-25, custom)"
   sodipodi:docname="PS_BugWallStorage_south.svg"
   inkscape:export-filename="PS_BugWallStorage_south.png"
   inkscape:export-xdpi="96"
   inkscape:export-ydpi="96"
   xmlns:inkscape="http://www.inkscape.org/namespaces/inkscape"
   xmlns:sodipodi="http://sodipodi.sourceforge.net/DTD/sodipodi-0.dtd"
   xmlns="http://www.w3.org/2000/svg"
   xmlns:svg="http://www.w3.org/2000/svg"><sodipodi:namedview
     id="namedview1"
     pagecolor="#ffffff"
     bordercolor="#000000"
     borderopacity="0.25"
     inkscape:showpageshadow="2"
     inkscape:pageopacity="0.0"
     inkscape:pagecheckerboard="0"
     inkscape:deskcolor="#d1d1d1"
     inkscape:document-units="mm"
     inkscape:zoom="3.5234375"
     inkscape:cx="137.64967"
     inkscape:cy="58.891352"
     inkscape:window-width="2560"
     inkscape:window-height="1369"
     inkscape:window-x="-8"
     inkscape:window-y="-8"
     inkscape:window-maximized="1"
     inkscape:current-layer="layer1" /><defs
     id="defs1" /><g
     inkscape:label="Layer 1"
     inkscape:groupmode="layer"
     id="layer1"><g
       id="g1"
       transform="rotate(180,33.146022,31.587977)"><path
         style="display:inline;fill:#737152;fill-opacity:1;stroke-width:2;stroke-linecap:round;stroke-linejoin:round;stroke-dasharray:none"
         d="m 19.622762,40.25831 c -9.304987,3.291562 -8.925192,8.292202 -8.925192,8.292202 0,0 -2.5952683,6.076725 0.82289,7.912404 3.418159,1.835677 8.482097,4.114448 11.267263,1.898975 2.785167,-2.215472 0.632993,-6.583119 5.443734,-7.40601 4.810741,-0.822888 7.40601,-2.975062 10.381075,-0.69629 2.975065,2.278771 4.430945,2.785165 5.633632,5.886828 1.202685,3.101663 3.418158,6.709719 4.557544,6.51982 1.139385,-0.189897 5.127238,-0.886188 6.64642,-3.734655 1.519182,-2.848464 2.595269,-5.253836 1.392582,-8.735292 -1.202685,-3.481459 -1.392582,-4.620845 -4.17775,-7.152815 -2.785166,-2.53197 -2.088875,-2.721867 -4.557543,-2.785165 -2.468671,-0.0633 -28.484655,-2e-6 -28.484655,-2e-6 z"
         id="path1"
         sodipodi:nodetypes="ccssssssssssc" /><path
         id="path1-5"
         style="display:inline;fill:#434132;fill-opacity:1;stroke-width:31.5;stroke-linecap:round;stroke-linejoin:round"
         d="m 31.294477,46.672677 c -2.294486,0.004 -3.989005,3.176774 -8.412035,4.925414 -3.88777,1.537025 -4.644317,4.167366 -4.670634,7.513546 1.739742,0.323811 3.371276,0.208437 4.575948,-0.749825 2.785165,-2.215469 0.63286,-6.582859 5.443596,-7.405749 4.810736,-0.822887 7.406216,-2.975368 10.381278,-0.696598 2.975062,2.278768 4.431079,2.785319 5.633765,5.886979 1.202684,3.10166 3.41796,6.709914 4.557344,6.520015 0.361585,-0.06026 1.023647,-0.183561 1.789039,-0.398425 -0.529155,-2.056225 -1.50445,-5.581246 -2.042253,-5.805331 -0.759591,-0.316496 -2.785395,-2.721406 -3.291789,-4.493782 -0.506393,-1.772375 -3.671226,-3.418195 -5.570202,-4.241085 -1.898977,-0.822888 -3.417849,-1.519306 -6.646106,-1.772502 -0.605299,-0.04747 -1.218454,0.716416 -1.747951,0.717343 z"
         sodipodi:nodetypes="sscssssscsssss" /><path
         style="display:inline;fill:#918c6d;fill-opacity:1;stroke-width:31.5;stroke-linecap:round;stroke-linejoin:round"
         d="m 10.69757,48.550512 c 0,0 -0.379795,0.379793 1.64578,1.898975 2.025576,1.519182 10.001278,-5.158888 10.001278,-5.158888 l 8.545396,-0.411443 c 0,0 6.899617,-2.088875 10.507673,0.822889 3.608057,2.911766 5.317136,4.726499 8.102304,3.787482 2.785165,-0.939017 2.369889,-0.243828 3.291559,-2.837993 0.921669,-2.594166 0.811657,-2.707929 0.811657,-2.707929 l -2.920103,-2.844641 c -0.605845,-0.731171 -1.526787,-0.900085 -2.575697,-0.840652 l -28.484655,-3e-6 -3.568664,1.574567 c -1.454598,0.827052 -2.624131,1.683302 -3.421673,2.577653 -1.132324,1.260919 -1.90123,2.610628 -1.934855,4.139983 z"
         id="path2"
         sodipodi:nodetypes="csccsssccccccc" /><path
         style="fill:#655b3f;fill-opacity:1;stroke-width:31.5;stroke-linecap:round;stroke-linejoin:round"
         d="m 21.350194,40.258309 c 0,0 -0.134278,1.68117 -2.148447,3.202988 -2.01417,1.521817 -4.3191,1.42491 -3.625505,3.759782 0.693595,2.334871 0.760908,3.179849 -0.760908,4.230724 -1.521817,1.050875 -2.445045,2.532586 -3.625505,2.861625 -1.18046,0.329041 -1.177237,0.338487 -1.177237,0.338487 l 1.507868,1.811001 c 0,0 2.489206,-0.60329 2.813711,-1.330629 0.324505,-0.727337 1.029464,-1.779183 1.163742,-1.835132 0.134278,-0.05595 0.514732,-0.04476 0.805668,0.100709 0.290935,0.145468 0.469973,0.581871 0.414024,1.197311 -0.05595,0.615442 -0.156658,1.376349 0.246176,2.025361 0.402834,0.64901 0.639464,0.941986 1.26655,1.766504 0.627087,0.824516 0.853779,0.851257 0.853779,0.851257 l 1.877744,-0.06288 c 0,0 -0.148772,-1.905873 -0.786592,-2.387036 -0.63782,-0.481164 -1.432298,-0.447593 -1.779183,-1.174933 -0.346885,-0.727339 -0.716149,-1.846321 -0.346885,-2.61842 0.369265,-0.772099 0.167848,-1.841875 -0.346884,-2.081307 -0.514733,-0.239432 -0.522129,-1.112047 -0.669493,-1.798096 -0.147365,-0.686046 -0.639718,-1.805029 -0.180935,-2.275003 0.458783,-0.469972 1.947031,-0.6344 2.584851,-0.760908 0.63782,-0.126508 1.846322,-0.895186 1.521817,-1.656096 -0.324505,-0.760907 -0.156658,-1.331589 0.223796,-1.734423 0.380455,-0.402833 1.812753,-1.832673 1.902271,-2.137256 0.08952,-0.304583 -0.07833,-0.304583 -0.07833,-0.304583 z"
         id="path3" /><path
         style="fill:#655b3f;fill-opacity:1;stroke-width:31.5;stroke-linecap:round;stroke-linejoin:round"
         d="m 34.917959,40.258309 c 0,0 0.976201,0.141396 0.112638,1.530604 -0.863563,1.389208 -2.319377,1.768001 -1.47384,2.966148 0.845534,1.198147 4.684461,2.395498 4.064529,3.529344 -0.619934,1.133845 -0.569978,1.148699 -0.569978,1.148699 l 1.561224,0.826487 c 0,0 1.702617,-0.317321 1.749626,-1.261809 0.04701,-0.944488 3.333692,-1.76685 -0.375462,-3.304064 -3.709154,-1.537216 -4.270648,0.07914 -4.275458,-1.537369 -0.0048,-1.616512 -0.342725,-1.662851 1.234215,-2.780445 1.576941,-1.117592 1.576941,-1.117592 1.576941,-1.117592 z"
         id="path4" /><path
         style="display:inline;fill:none;fill-opacity:1;stroke:#000000;stroke-width:1;stroke-linecap:round;stroke-linejoin:round;stroke-dasharray:none;stroke-opacity:1"
         d="m 19.622762,40.25831 c -9.304987,3.291562 -8.925192,8.292202 -8.925192,8.292202 0,0 -2.595268,6.076725 0.82289,7.912404 3.418159,1.835677 8.482097,4.114448 11.267263,1.898975 2.785167,-2.215472 0.632993,-6.583119 5.443734,-7.40601 4.810741,-0.822888 7.40601,-2.975062 10.381075,-0.69629 2.975065,2.278771 4.430945,2.785165 5.633632,5.886828 1.202685,3.101663 3.418158,6.709719 4.557544,6.51982 1.139385,-0.189897 5.127238,-0.886188 6.64642,-3.734655 1.519182,-2.848464 2.595269,-5.253836 1.392582,-8.735292 -1.202685,-3.481459 -1.392582,-4.620845 -4.17775,-7.152815 -2.785166,-2.53197 -2.088875,-2.721867 -4.557543,-2.785165 -2.468671,-0.0633 -28.484655,-2e-6 -28.484655,-2e-6 z"
         id="path1-0"
         sodipodi:nodetypes="ccssssssssssc" /></g></g></svg>
