<?xml version="1.0" encoding="UTF-8" standalone="no"?>
<!-- Created with Inkscape (http://www.inkscape.org/) -->

<svg
   width="256"
   height="512"
   viewBox="0 0 67.733332 135.46695"
   version="1.1"
   id="svg1"
   xml:space="preserve"
   inkscape:version="1.3.2 (091e20e, 2023-11-25, custom)"
   sodipodi:docname="PS_BugCocoon.svg"
   inkscape:export-filename="PS_BugCocoon.png"
   inkscape:export-xdpi="96"
   inkscape:export-ydpi="96"
   xmlns:inkscape="http://www.inkscape.org/namespaces/inkscape"
   xmlns:sodipodi="http://sodipodi.sourceforge.net/DTD/sodipodi-0.dtd"
   xmlns="http://www.w3.org/2000/svg"
   xmlns:svg="http://www.w3.org/2000/svg"><sodipodi:namedview
     id="namedview1"
     pagecolor="#ffffff"
     bordercolor="#000000"
     borderopacity="0.25"
     inkscape:showpageshadow="2"
     inkscape:pageopacity="0.0"
     inkscape:pagecheckerboard="0"
     inkscape:deskcolor="#d1d1d1"
     inkscape:document-units="mm"
     inkscape:zoom="1.7617188"
     inkscape:cx="-61.303768"
     inkscape:cy="127.43237"
     inkscape:window-width="2560"
     inkscape:window-height="1369"
     inkscape:window-x="-8"
     inkscape:window-y="-8"
     inkscape:window-maximized="1"
     inkscape:current-layer="layer1" /><defs
     id="defs1" /><g
     inkscape:label="Layer 1"
     inkscape:groupmode="layer"
     id="layer1"
     transform="translate(-1.7352085,-24.625568)"><g
       id="g1"
       transform="matrix(1.2725178,0,0,1.2725178,-5.6842508,49.251278)"><g
         id="g13"
         inkscape:label="Base"
         style="display:inline"
         transform="matrix(1.1484568,0,0,1.1484568,-3.2025936,-6.3783402)"><path
           style="fill:#737152;fill-opacity:1;stroke-width:2;stroke-linecap:round;stroke-linejoin:round"
           d="m 26.732888,9.4616406 c -7.208868,2.6282334 -7.58433,1.7271244 -9.011085,3.9798964 -1.426755,2.252772 -2.85351,2.478049 -1.57694,4.205174 1.276571,1.727124 1.426755,3.604434 0.901109,4.73082 -0.525647,1.126386 -1.351663,2.331469 -2.177679,3.262932 -0.826017,0.931464 -4.430451,4.253609 -4.130082,6.87454 0.30037,2.62093 1.57694,3.75462 2.177679,5.031189 0.600739,1.276572 2.703326,9.346555 0.826017,11.356499 -1.87731,2.009947 -2.928604,1.409208 -3.304065,3.661979 -0.375462,2.252771 -0.7509243,3.379157 0.300369,4.580636 1.051294,1.201478 2.252772,2.478047 4.580636,2.703327 2.327864,0.225277 7.509238,-2.027497 10.137472,-0.450556 2.628233,1.57694 2.778419,1.351663 3.679526,2.102588 0.90111,0.750924 2.027494,2.478047 5.707023,1.952402 3.679526,-0.525647 6.683221,-0.675833 7.359054,-2.928604 0.675831,-2.252771 1.351661,-3.003695 3.078787,-4.43045 1.727123,-1.426755 1.126384,-0.826016 3.078787,-2.027494 1.952403,-1.201478 5.106284,-0.232339 2.928604,-4.16383 -2.17768,-3.931489 0.225277,-1.213504 -2.327865,-3.931489 -2.553142,-2.717985 -4.505542,-3.243633 -4.580636,-5.271127 -0.07509,-2.027494 -3.679526,-0.840623 0.300371,-5.56414 3.979897,-4.723516 6.232668,-0.968899 4.805913,-6.75101 -1.426755,-5.782115 -0.525648,-5.839817 -1.952403,-6.534076 -1.426755,-0.69426 -2.85351,-0.674794 -2.703325,-2.852473 0.150183,-2.17768 1.501847,-4.130081 1.201479,-6.082484 -0.300371,-1.952402 0.07509,-2.703326 -1.051296,-2.9286027 C 43.853954,9.7620102 44.604879,8.560532 39.64878,7.8847004 34.692682,7.2088692 33.190836,6.007391 31.914264,6.8334072 30.637694,7.6594233 29.436216,8.560532 26.732888,9.4616406 Z"
           id="path10" /><path
           id="path10-7"
           style="fill:#918c6d;fill-opacity:1;stroke-width:2;stroke-linecap:round;stroke-linejoin:round"
           d="m 32.964396,6.5541219 c -0.397754,-0.00704 -0.730922,0.072549 -1.050065,0.2790527 -1.276569,0.8260153 -2.477754,1.7271557 -5.181079,2.6282634 -7.208861,2.628231 -7.584583,1.727349 -9.011336,3.980119 -1.426754,2.25277 -2.853734,2.477788 -1.577165,4.204911 1.063438,1.438768 1.337556,2.975792 1.098124,4.102075 0.527485,0.01988 1.199912,-0.103833 2.131136,-0.592212 2.327745,-1.220779 0.675508,0.202239 3.754293,1.371493 3.078785,1.169254 1.502137,2.102312 3.22926,3.112471 1.727123,1.01016 1.576809,3.06e-4 3.904672,-1.685685 2.327862,-1.68599 4.055178,-0.2256 8.560717,0.149862 4.505538,0.375461 1.201445,-0.675724 5.782076,-2.746086 0.402482,-0.181914 0.663667,-0.293971 0.943095,-0.414962 -0.488712,-0.354618 -0.79059,-0.88943 -0.717785,-1.9451 0.150182,-2.177678 1.501844,-4.130432 1.201477,-6.082833 -0.300371,-1.9524 0.07477,-2.703227 -1.051616,-2.9285037 C 43.853817,9.7617104 44.604837,8.560621 39.648743,7.88479 35.931673,7.3779171 34.15766,6.5752416 32.964396,6.5541219 Z" /><path
           id="path10-4"
           style="fill:#434132;fill-opacity:1;stroke-width:2;stroke-linecap:round;stroke-linejoin:round"
           d="m 14.535547,36.936247 c -0.386479,-0.0047 -0.903724,0.178001 -1.61954,0.609782 0.600739,1.27657 2.703097,9.34647 0.82579,11.356412 -1.877308,2.009945 -2.928731,1.40954 -3.304191,3.662309 -0.375462,2.252769 -0.7505356,3.379121 0.300757,4.580599 1.051293,1.201477 2.252737,2.477915 4.580599,2.703194 2.327861,0.225277 7.509134,-2.027558 10.137365,-0.450618 2.628231,1.576938 2.778256,1.35179 3.679362,2.102714 0.901109,0.750923 2.02762,2.47798 5.707145,1.952335 3.679523,-0.525646 6.683409,-0.675734 7.359241,-2.928503 0.675831,-2.252769 1.351758,-3.003467 3.078882,-4.430221 1.727121,-1.426753 1.125964,-0.826306 3.078365,-2.027783 1.952401,-1.201477 5.106698,-0.232083 2.92902,-4.16357 -2.177678,-3.931485 0.225116,-1.213561 -2.328023,-3.931543 -2.214298,-2.357264 -3.974651,-3.067044 -4.452441,-4.536157 -0.713492,0.130035 -1.439748,0.344243 -2.155941,0.691431 -4.20517,2.038536 -2.953931,3.844726 -7.133415,3.844726 -4.179487,0 -14.568038,1.111462 -15.318961,-0.765845 -0.750924,-1.87731 -2.778416,-2.478048 -3.604432,-4.805908 -0.619511,-1.745897 -0.600146,-3.449274 -1.759582,-3.463354 z" /><path
           style="fill:#655b3f;fill-opacity:1;stroke-width:2;stroke-linecap:round;stroke-linejoin:round"
           d="m 20.013851,11.607299 c 0,0 1.762941,-0.718903 1.687849,2.960624 -0.07509,3.679527 -3.168942,4.481149 -0.871169,6.220525 2.297773,1.739376 2.898663,3.739316 1.021353,5.254887 -1.877309,1.515569 -2.124079,5.290695 -5.406652,3.365502 C 13.16266,27.483646 11.843027,29.20266 11.843027,29.20266 l -0.703897,1.266923 c 0,0 1.438845,-1.146006 2.508911,-0.714224 1.070067,0.431781 2.496822,2.12136 3.022469,2.30909 0.525646,0.18773 3.491796,-0.750925 3.491796,-1.877309 0,-1.126387 0.01877,-1.464302 0.619512,-2.177679 0.600739,-0.713378 1.82099,-0.976202 2.571914,-1.276573 0.750924,-0.300368 2.124097,-0.158988 2.102587,-1.126384 -0.02151,-0.967396 0.168107,-1.05968 -0.286368,-1.638828 -0.454475,-0.579149 0.07986,-1.759103 0.474099,-2.003153 0.394235,-0.24405 1.351662,-0.431781 2.384183,-0.694605 1.03252,-0.262823 1.76467,-0.469327 1.820989,-1.407982 0.05632,-0.938655 0.319143,-1.389209 1.351664,-2.158906 1.032521,-0.769697 2.327865,-1.126386 2.66578,-1.652033 0.337915,-0.525646 0.563192,-0.9762 0,-1.670805 -0.563192,-0.694605 -1.087831,-1.87731 -2.046269,-1.764671 -0.958434,0.112638 -1.576938,0.337916 -1.971175,-0.262824 -0.394234,-0.600739 -0.469325,-0.375461 -0.600739,-1.257797 -0.13141,-0.882336 -0.08772,-1.580721 -0.07509,-2.1025868 0.01262,-0.5218657 0.154331,-0.5925188 0.154331,-0.5925188 L 27.71158,9.1114289 c 0,0 -0.115129,1.4390511 0.222787,2.1524291 0.337918,0.713378 0.84479,1.539394 1.314116,1.745898 0.469329,0.206504 0.335902,1.351663 1.61348,1.163932 1.277577,-0.187731 1.427763,-1.08884 1.746906,-0.225277 0.319143,0.863562 1.314116,1.201478 -0.05632,1.520621 -1.370436,0.319142 -1.839765,-0.506874 -2.459276,0.638285 -0.619511,1.145159 -0.09387,1.802217 -1.483074,2.102587 -1.389211,0.300369 -1.332892,-0.05632 -2.027494,0.187731 -0.694606,0.24405 -0.90111,-0.244051 -1.088841,0.844789 -0.187731,1.08884 0.112639,1.220251 -0.337916,1.633259 -0.450554,0.413008 -0.563193,0.750924 -1.163932,0.506874 -0.600739,-0.24405 -1.013747,0.24405 -1.201478,-0.769697 -0.187731,-1.013747 -0.525646,-0.732151 -0.07509,-1.57694 0.450554,-0.844789 0.581966,-0.619512 0.581966,-1.239024 0,-0.619513 -0.187731,-0.713378 -0.431781,-1.314117 -0.244051,-0.600739 -0.807244,-0.112639 -0.30037,-1.501848 0.506874,-1.389209 0.525647,-1.689579 0.525647,-2.008721 0,-0.319143 0.21286,-0.31915 -0.281597,-1.182705 -0.494457,-0.863556 -0.778194,-0.779933 -0.778194,-0.779933 z"
           id="path12" /><path
           style="fill:#655b3f;fill-opacity:1;stroke-width:2;stroke-linecap:round;stroke-linejoin:round"
           d="m 46.779634,44.165366 c 0,0 -1.950503,0.59653 -1.327459,2.136383 0.623043,1.539852 2.123935,1.221261 -0.106196,2.123932 -2.23013,0.902671 -1.539851,0.328335 -3.504491,0.902671 -1.964639,0.574337 -2.708015,0.106199 -2.54872,1.592951 0.159295,1.486754 1.433655,2.017736 0,2.814211 -1.433656,0.796476 -1.433656,0.69028 -2.548721,1.168165 -1.115065,0.477885 -2.230128,-0.584081 -2.070833,1.752245 0.159295,2.336327 -1.008869,2.442522 0.743376,3.292097 1.752246,0.849572 2.823316,-0.166833 2.761112,1.433655 -0.0622,1.600486 -0.853225,1.727735 -0.853225,1.727735 l 2.112399,-0.412793 c 0,0 0.28068,-0.837057 0.413424,-1.633532 0.132747,-0.796475 0.663729,-0.663728 -0.292039,-1.300908 -0.95577,-0.637181 -1.141616,-0.584084 -1.991188,-0.610632 -0.849574,-0.02655 -1.380559,0.0531 -1.460206,-0.796475 -0.07965,-0.849575 -0.902671,-0.955771 0.07965,-1.460204 0.982322,-0.504434 1.141617,-0.477885 1.96464,-0.823024 0.823024,-0.345141 2.177031,-0.477885 2.495621,-1.460206 0.318591,-0.982318 0.504434,-0.823023 0.345139,-1.460204 -0.159295,-0.63718 -0.743376,-1.221261 -0.238943,-1.619498 0.504436,-0.398238 0.31859,-0.37169 1.486755,-0.345139 1.168164,0.02655 2.044284,-0.118686 2.654916,-0.530984 0.610632,-0.412298 0.292042,-0.31859 1.088517,-0.95577 0.796475,-0.63718 0.292039,-0.07965 1.008867,-0.63718 0.716828,-0.557533 1.168165,0.07965 0.982321,-0.823024 -0.185846,-0.902671 0.159295,-0.424786 -0.265493,-1.221261 -0.424786,-0.796475 -0.663729,-0.63718 -0.584081,-1.035418 0.07965,-0.398237 0.576172,-1.240221 0.55435,-1.259739 -0.02183,-0.01953 -0.730496,-0.631264 -0.730496,-0.631264 z"
           id="path13" /><path
           style="fill:none;fill-opacity:1;stroke:#000000;stroke-width:2;stroke-linecap:round;stroke-linejoin:round;stroke-opacity:1"
           d="m 26.732888,9.4616405 c -7.208868,2.6282335 -7.58433,1.7271245 -9.011085,3.9798965 -1.426755,2.252772 -2.85351,2.478049 -1.57694,4.205174 1.276571,1.727124 1.426755,3.604434 0.901109,4.73082 -0.525647,1.126386 -1.351663,2.331469 -2.177679,3.262932 -0.826017,0.931464 -4.430451,4.253609 -4.130082,6.87454 0.30037,2.62093 1.57694,3.75462 2.177679,5.031189 0.600739,1.276572 2.703326,9.346555 0.826017,11.356499 -1.87731,2.009947 -2.928604,1.409208 -3.304065,3.661979 -0.375462,2.252771 -0.7509241,3.379157 0.300369,4.580636 1.051294,1.201478 2.252772,2.478047 4.580636,2.703327 2.327864,0.225277 7.509238,-2.027497 10.137472,-0.450556 2.628233,1.57694 2.778419,1.351663 3.679526,2.102588 0.90111,0.750924 2.027494,2.478047 5.707023,1.952402 3.679526,-0.525647 6.683221,-0.675833 7.359054,-2.928604 0.675831,-2.252771 1.351661,-3.003695 3.078787,-4.43045 1.727123,-1.426755 1.126384,-0.826016 3.078787,-2.027494 1.952403,-1.201478 5.106284,-0.232339 2.928604,-4.16383 -2.17768,-3.931489 0.225277,-1.213504 -2.327865,-3.931489 -2.553142,-2.717985 -4.505542,-3.243633 -4.580636,-5.271127 -0.07509,-2.027494 -3.679526,-0.840623 0.300371,-5.56414 3.979897,-4.723516 6.232668,-0.968899 4.805913,-6.75101 -1.426755,-5.782115 -0.525648,-5.839817 -1.952403,-6.534076 -1.426755,-0.69426 -2.85351,-0.674794 -2.703325,-2.852473 0.150183,-2.17768 1.501847,-4.130081 1.201479,-6.082484 -0.300371,-1.952402 0.07509,-2.703326 -1.051296,-2.9286027 C 43.853954,9.7620101 44.604879,8.5605319 39.64878,7.8847003 34.692682,7.2088691 33.190836,6.0073909 31.914264,6.8334071 30.637694,7.6594232 29.436216,8.5605319 26.732888,9.4616405 Z"
           id="path10-5"
           inkscape:label="Outline" /></g><g
         id="g16"
         inkscape:label="TopLayer"
         style="display:inline"
         transform="matrix(1.1484568,0,0,1.1484568,-3.2025936,-6.3783402)"><path
           style="fill:#655b3f;fill-opacity:1;stroke:none;stroke-width:2;stroke-linecap:round;stroke-linejoin:round;stroke-opacity:1"
           d="m 13.967184,32.088489 c 2.102587,1.778177 6.683222,6.217923 10.437841,5.532797 3.754618,-0.685128 6.474096,0.750922 10.032908,-1.501849 3.558816,-2.252771 4.835385,-2.177679 6.26214,-4.655727 1.426755,-2.478048 3.829712,-4.758267 4.205174,-5.420375 0.375462,-0.662109 1.608894,-0.357015 1.608894,-0.357015 0,0 0.828024,0.437887 0.645689,1.118366 -0.182332,0.680479 -3.981709,6.010687 -3.981709,6.010687 0,0 -2.252771,2.787714 -3.304064,3.45425 -1.051293,0.666535 -4.805913,2.478047 -6.007391,2.553141 -1.201478,0.07509 -2.778418,0.300369 -4.43045,0.525646 -1.652032,0.225276 -4.05499,0.225276 -4.881006,0.150185 -0.826016,-0.07509 -2.628233,0.07509 -3.604434,-0.375462 -0.976201,-0.450554 -3.15388,-2.027494 -3.979897,-2.628234 -0.826016,-0.600739 -2.553141,-0.256876 -2.928603,-1.442553 -0.375462,-1.18568 -1.033184,-1.467649 -1.13938,-1.865886 -0.106197,-0.398238 0.29204,-0.955771 0.29204,-0.955771 z"
           id="path14" /><path
           style="fill:#655b3f;fill-opacity:1;stroke:none;stroke-width:2;stroke-linecap:round;stroke-linejoin:round;stroke-opacity:1"
           d="m 17.721803,46.85765 c 0,0 2.170714,1.802217 4.952615,1.727123 2.781901,-0.07509 5.815068,-0.07509 8.789292,-0.750922 2.974223,-0.675833 5.238017,-0.527495 5.923073,-2.134595 0.685057,-1.6071 4.965153,-3.572629 4.965153,-3.572629 0,0 0.826185,-0.206303 0.863732,0.525849 0.03755,0.73215 -0.18773,1.113459 -0.450554,1.276569 -0.262824,0.163111 -2.027494,0.750925 -2.346637,1.070068 -0.319143,0.319143 -1.182706,1.389208 -1.295344,1.708351 -0.112639,0.319143 -1.539394,1.520621 -2.215224,1.971175 -0.675833,0.450554 -4.618183,1.351664 -4.618183,1.351664 0,0 -1.070068,-0.02413 -2.083814,0.213211 -1.013748,0.237342 -3.003695,0.500166 -3.454249,0.105932 -0.450555,-0.394237 -2.008722,-0.563195 -2.309091,-0.450557 -0.30037,0.112639 -1.558167,0.7697 -1.745898,0.7697 -0.187731,0 -3.397931,0.650348 -3.867258,0.112638 -0.469328,-0.537713 -0.563193,-0.262824 -0.750924,-1.407983 -0.187731,-1.145159 -1.163932,-1.464302 -1.445528,-1.614487 -0.281597,-0.150183 -0.713378,-1.051293 -0.356689,-1.27657 0.356689,-0.225277 0.78847,-0.337915 1.013747,-0.07509 0.225277,0.262821 0.431781,0.450554 0.431781,0.450553 z"
           id="path15" /><path
           style="fill:#655b3f;fill-opacity:1;stroke:none;stroke-width:2;stroke-linecap:round;stroke-linejoin:round;stroke-opacity:1"
           d="m 35.41659,24.690726 c -1.96464,0.0531 -2.699181,0.723244 -2.699181,0.723244 0,0 -1.67834,0.604214 -1.67834,1.294492 0,0.69028 0.02487,1.115065 -0.666821,1.911541 -0.6917,0.796475 -2.177031,0.673184 -2.973506,2.070835 -0.796476,1.397651 -0.796476,2.177031 -0.265491,2.230131 0.530981,0.0531 0.426206,0.804465 1.486752,-0.341143 1.060545,-1.145612 1.060545,-1.358004 1.060545,-1.782792 0,-0.424786 0.2731,-0.95577 1.358521,-1.27436 1.085424,-0.31859 2.041195,-0.212392 2.041195,-1.274361 0,-1.061966 -1.380559,-0.343738 0.159295,-1.274357 1.539851,-0.930621 1.486752,-0.930621 2.601817,-0.930621 1.115065,0 2.328257,0.295612 2.654916,-0.821626 0.32666,-1.117237 0.477886,-2.601818 1.32746,-2.814212 0.849572,-0.212393 1.168162,-1.91154 1.168162,-1.91154 0,0 0.796475,-0.690278 -0.106196,-1.221261 -0.902671,-0.530984 -1.646047,-0.544659 -2.017736,0.212393 -0.37169,0.757052 -2.230131,1.858442 -1.858442,2.495622 0.371687,0.63718 1.311088,2.094477 0.620395,1.991541 -0.690689,-0.102937 -2.213345,0.716474 -2.213345,0.716474 z"
           id="path16" /></g></g></g></svg>
