<?xml version="1.0" encoding="UTF-8" standalone="no"?>
<!-- Created with Inkscape (http://www.inkscape.org/) -->

<svg
   width="512"
   height="512"
   viewBox="0 0 135.46666 135.46667"
   version="1.1"
   id="svg1"
   inkscape:version="1.3.2 (091e20e, 2023-11-25, custom)"
   sodipodi:docname="PS_Pillory.svg"
   inkscape:export-filename="PS_Pillory_TopLayer.png"
   inkscape:export-xdpi="96"
   inkscape:export-ydpi="96"
   xmlns:inkscape="http://www.inkscape.org/namespaces/inkscape"
   xmlns:sodipodi="http://sodipodi.sourceforge.net/DTD/sodipodi-0.dtd"
   xmlns="http://www.w3.org/2000/svg"
   xmlns:svg="http://www.w3.org/2000/svg">
  <sodipodi:namedview
     id="namedview1"
     pagecolor="#ffffff"
     bordercolor="#000000"
     borderopacity="0.25"
     inkscape:showpageshadow="2"
     inkscape:pageopacity="0.0"
     inkscape:pagecheckerboard="0"
     inkscape:deskcolor="#d1d1d1"
     inkscape:document-units="mm"
     inkscape:zoom="2.0899411"
     inkscape:cx="290.91729"
     inkscape:cy="223.69051"
     inkscape:window-width="2560"
     inkscape:window-height="1369"
     inkscape:window-x="-8"
     inkscape:window-y="-8"
     inkscape:window-maximized="1"
     inkscape:current-layer="layer1" />
  <defs
     id="defs1" />
  <g
     inkscape:label="Layer 1"
     inkscape:groupmode="layer"
     id="layer1"
     style="display:inline">
    <g
       id="g9"
       inkscape:label="Base"
       style="display:none"
       transform="translate(-2.6e-4,-1.895e-4)">
      <path
         id="rect1"
         style="fill:#6e5734;fill-opacity:1;stroke:none;stroke-width:2.183;stroke-linecap:round;stroke-linejoin:round"
         d="M 7.4093668,32.662536 V 62.919604 H 128.0573 V 32.662536 Z M 67.733333,35.890762 A 11.900254,11.900254 0 0 1 79.633382,47.790811 11.900254,11.900254 0 0 1 67.733333,59.691377 11.900254,11.900254 0 0 1 55.833285,47.790811 11.900254,11.900254 0 0 1 67.733333,35.890762 Z m -30.63844,6.329847 a 5.5703321,5.5703321 0 0 1 5.570203,5.570202 5.5703321,5.5703321 0 0 1 -5.570203,5.570203 5.5703321,5.5703321 0 0 1 -5.570202,-5.570203 5.5703321,5.5703321 0 0 1 5.570202,-5.570202 z m 61.27688,0 a 5.5703321,5.5703321 0 0 1 5.570207,5.570202 5.5703321,5.5703321 0 0 1 -5.570207,5.570203 5.5703321,5.5703321 0 0 1 -5.570202,-5.570203 5.5703321,5.5703321 0 0 1 5.570202,-5.570202 z" />
      <rect
         style="fill:#564529;fill-opacity:1;stroke:none;stroke-width:2.183;stroke-linecap:round;stroke-linejoin:round"
         id="rect2"
         width="8.8618927"
         height="97.987213"
         x="10.808969"
         y="25.605783" />
      <rect
         style="fill:#564529;fill-opacity:1;stroke:none;stroke-width:2.183;stroke-linecap:round;stroke-linejoin:round"
         id="rect2-6"
         width="8.8618927"
         height="97.987213"
         x="113.27674"
         y="26.664118" />
      <path
         style="color:#000000;fill:#000000;stroke-linecap:round;stroke-linejoin:round;-inkscape-stroke:none"
         d="m 10.809251,24.482476 a 1.0916092,1.0916092 0 0 0 -1.091796,1.089845 v 5.998047 H 6.3190169 a 1.0916092,1.0916092 0 0 0 -1.091797,1.091796 v 30.257813 a 1.0916092,1.0916092 0 0 0 1.091797,1.091797 H 9.717455 v 59.548836 a 1.0916092,1.0916092 0 0 0 1.091796,1.0918 h 8.861329 a 1.0916092,1.0916092 0 0 0 1.091796,-1.0918 V 64.011774 h 91.423834 v 59.548836 a 1.0916092,1.0916092 0 0 0 1.08984,1.0918 h 8.86328 a 1.0916092,1.0916092 0 0 0 1.0918,-1.0918 V 64.011774 h 3.73437 a 1.0916092,1.0916092 0 0 0 1.0918,-1.091797 V 32.662164 a 1.0916092,1.0916092 0 0 0 -1.0918,-1.091796 h -3.73437 v -5.998047 a 1.0916092,1.0916092 0 0 0 -1.0918,-1.089845 h -8.86328 a 1.0916092,1.0916092 0 0 0 -1.08984,1.089845 v 5.998047 H 20.762376 V 25.572321 A 1.0916092,1.0916092 0 0 0 19.67058,24.482476 Z m 1.091797,2.181642 h 6.677735 v 5.998046 a 1.0916092,1.0916092 0 0 0 1.091797,1.091797 h 93.60547 a 1.0916092,1.0916092 0 0 0 1.0918,-1.091797 v -5.998046 h 6.67968 v 5.998046 a 1.0916092,1.0916092 0 0 0 1.0918,1.091797 h 3.73438 V 61.82818 h -3.73438 a 1.0916092,1.0916092 0 0 0 -1.0918,1.091797 V 122.4688 h -6.67968 V 62.919977 a 1.0916092,1.0916092 0 0 0 -1.0918,-1.091797 H 19.67058 a 1.0916092,1.0916092 0 0 0 -1.091797,1.091797 V 122.4688 H 11.901048 V 62.919977 A 1.0916092,1.0916092 0 0 0 10.809251,61.82818 H 7.408861 V 33.753961 h 3.40039 a 1.0916092,1.0916092 0 0 0 1.091797,-1.091797 z m 54.740235,8.134765 c -7.162038,1.24e-4 -12.990111,5.830149 -12.990235,12.992188 -1.87e-4,7.162256 5.827977,12.992064 12.990235,12.992187 C 73.80354,60.783135 79.633658,54.953327 79.63347,47.791071 79.633346,40.629032 73.803321,34.799007 66.641283,34.798883 Z m 0,2.183594 c 5.982285,1.02e-4 10.80849,4.826308 10.808593,10.808594 1.57e-4,5.982469 -4.826123,10.808489 -10.808593,10.808593 -5.982471,-1.04e-4 -10.808751,-4.826123 -10.808594,-10.808593 1.04e-4,-5.982286 4.826309,-10.808492 10.808594,-10.808594 z m -30.636719,4.146484 c -3.666177,8.5e-5 -6.662024,2.995932 -6.662109,6.66211 8.5e-5,3.666176 2.995932,6.662022 6.662109,6.662109 3.666177,-8.5e-5 6.660071,-2.995933 6.660156,-6.662109 -8.5e-5,-3.666178 -2.993979,-6.662025 -6.660156,-6.66211 z m 61.275396,0 c -3.666184,8.3e-5 -6.662029,2.995931 -6.662115,6.66211 8.5e-5,3.666179 2.995931,6.662025 6.662115,6.662109 3.66617,-8.8e-5 6.66202,-2.995934 6.66211,-6.662109 -9e-5,-3.666177 -2.99594,-6.662024 -6.66211,-6.66211 z m -61.275396,2.183594 c 2.486433,5.7e-5 4.478458,1.992081 4.478516,4.478516 -5.8e-5,2.486432 -1.992082,4.478457 -4.478516,4.478515 -2.486433,-5.8e-5 -4.480411,-1.992082 -4.480469,-4.478515 5.8e-5,-2.486434 1.994036,-4.478459 4.480469,-4.478516 z m 61.275396,0 c 2.48643,5.8e-5 4.47845,1.992082 4.47851,4.478516 -6e-5,2.486431 -1.99208,4.478455 -4.47851,4.478515 -2.486441,-5.6e-5 -4.478463,-1.992081 -4.478521,-4.478515 5.8e-5,-2.486435 1.99208,-4.47846 4.478521,-4.478516 z"
         id="rect1-8-1" />
    </g>
    <g
       id="g65"
       style="display:inline"
       inkscape:label="TopLayer"
       transform="translate(1.5e-4,-1.25e-5)">
      <path
         id="rect1-9"
         style="display:inline;fill:#6e5734;fill-opacity:1;stroke:none;stroke-width:2.183;stroke-linecap:round;stroke-linejoin:round"
         d="m 128.05678,47.790881 h -24.1148 a 5.5703321,5.5703321 0 0 1 -5.570723,5.569686 5.5703321,5.5703321 0 0 1 -5.570203,-5.569686 H 79.632865 A 11.900254,11.900254 0 0 1 67.732817,59.69093 11.900254,11.900254 0 0 1 55.832768,47.790881 H 42.664579 a 5.5703321,5.5703321 0 0 1 -5.570202,5.569686 5.5703321,5.5703321 0 0 1 -5.570203,-5.569686 H 7.4088501 V 62.919157 H 128.05678 Z" />
      <path
         id="rect2-3"
         style="display:inline;fill:#564529;fill-opacity:1;stroke:none;stroke-width:2.183;stroke-linecap:round;stroke-linejoin:round"
         d="m 19.670634,47.790881 h -8.861991 v 75.802089 h 8.861991 z" />
      <path
         id="rect2-6-0"
         style="display:inline;fill:#564529;fill-opacity:1;stroke:none;stroke-width:2.183;stroke-linecap:round;stroke-linejoin:round"
         d="m 122.13828,47.790881 h -8.86199 v 76.860429 h 8.86199 z" />
      <path
         id="rect1-8-1-5"
         style="color:#000000;display:inline;fill:#000000;stroke-linecap:round;stroke-linejoin:round;-inkscape-stroke:none"
         d="m 90.617435,47.790894 c 0.01926,3.493939 3.234483,6.662034 6.662415,6.662113 3.42792,-8.2e-5 6.23637,-2.628767 6.59133,-5.966044 h -2.1823 c -0.33329,2.149469 -2.16128,3.782144 -4.40903,3.782198 -2.247762,-5.1e-5 -4.481222,-2.060239 -4.478821,-4.478267 z"
         sodipodi:nodetypes="ccccccc" />
      <path
         id="path28"
         style="color:#000000;display:inline;fill:#000000;stroke-linecap:round;stroke-linejoin:round;-inkscape-stroke:none"
         d="m 53.650638,47.790894 c 0.007,7.352753 6.062988,12.99184 12.990256,12.991959 6.927266,-1.19e-4 12.592197,-5.457869 12.957348,-12.29589 h -2.183846 c -0.358723,5.654708 -5.02606,10.112461 -10.773502,10.112561 -5.747444,-1e-4 -10.696068,-5.019643 -10.808615,-10.80863 z"
         sodipodi:nodetypes="ccccccc" />
      <path
         id="path26"
         style="color:#000000;display:inline;fill:#000000;stroke-linecap:round;stroke-linejoin:round;-inkscape-stroke:none"
         d="m 29.342045,47.790894 c 0.04164,4.031047 3.234185,6.662028 6.662109,6.662109 3.427923,-7.9e-5 6.234893,-2.628762 6.589629,-5.96604 h -2.180229 c -0.333294,2.14947 -2.161647,3.782394 -4.4094,3.782446 -2.247749,-5.2e-5 -4.303522,-1.59052 -4.480469,-4.478515 z"
         sodipodi:nodetypes="ccccccc" />
      <path
         id="path24"
         style="color:#000000;display:inline;fill:#000000;stroke-linecap:round;stroke-linejoin:round;-inkscape-stroke:none"
         d="m 128.05678,47.790881 c -0.72778,0.232027 -2.33661,-2.346571 -2.18333,0.696082 v 13.340788 h -3.73414 c -0.60312,-1.72e-4 -1.09209,0.4888 -1.09192,1.091923 V 122.46849 H 114.3677 V 62.919674 c 1.7e-4,-0.603127 -0.4888,-1.0921 -1.09193,-1.091923 H 19.670117 c -0.602922,1.12e-4 -1.091579,0.489001 -1.091406,1.091923 V 122.46849 H 11.900566 V 62.919674 c 1.73e-4,-0.602923 -0.488484,-1.091811 -1.091407,-1.091923 H 7.4088501 V 48.486963 h -2.181779 v 14.432711 c -1.734e-4,0.603124 0.4887988,1.092096 1.091923,1.091923 h 3.3982422 v 59.548823 c -1.717e-4,0.60312 0.4887997,1.09209 1.0919227,1.09192 h 8.860958 c 0.603123,1.7e-4 1.092095,-0.4888 1.091923,-1.09192 V 64.011597 h 91.42388 v 59.548823 c -1.7e-4,0.60231 0.48754,1.09095 1.08985,1.09192 h 8.86354 c 0.60292,-1.1e-4 1.09158,-0.489 1.09141,-1.09192 V 64.011597 h 3.73466 c 0.60292,-1.16e-4 1.09157,-0.489003 1.0914,-1.091923 0,-4.810904 0,-15.2743 0,-15.128793 z"
         sodipodi:nodetypes="ccccccccccccccccccccccccccccccccccc" />
    </g>
  </g>
</svg>
